<svg xmlns="http://www.w3.org/2000/svg" xmlns:xlink="http://www.w3.org/1999/xlink" viewBox="0 0 80 80"><defs><linearGradient id="linear-gradient" x1="27.3" y1="27.3" x2="68.29" y2="68.28" gradientUnits="userSpaceOnUse"><stop offset="0" stop-color="#1b3b52" stop-opacity="0.6"/><stop offset="1" stop-color="#43789f" stop-opacity="0.6"/></linearGradient></defs><title>Adaptability</title><g id="Layer_2" data-name="Layer 2"><g id="Layer_1-2" data-name="Layer 1"><circle cx="40" cy="40" r="40" style="fill:#43789f"/><path d="M80,40c0-.19,0-.39,0-.58l-19.8-19.8L59,33.93,55.11,30.8l-7.75,6.63-4.75-4.5,2-2.64L34.58,20l-3.41,5,6.06,7.88-4.54,4.85-7.77-6.54L20,34.58,30.17,44.74l2.19-2.12,5.31,4.88-6.69,7,2.31,5.06-13.55.75L39.43,80H40A40,40,0,0,0,80,40ZM59.61,59.05l-6.17.75-6.83-.75v-2l2.75-2.32-6.62-6.31.38-2.06,4.09-3.91L55,49.32l3.46-2.85,1.18,1.21Z" style="fill:url(#linear-gradient)"/><g id="cursor_scale_up" data-name="cursor scale up"><path d="M32.38,25.13l1.89-1.85A2.47,2.47,0,0,0,32.59,19H21.47A2.47,2.47,0,0,0,19,21.47V32.59a2.48,2.48,0,0,0,4.23,1.75l2-2L30.84,38a2.44,2.44,0,0,0,1.75.72A2.49,2.49,0,0,0,34.34,38l3.7-3.7a2.47,2.47,0,0,0,0-3.49Zm.21,11.16-7.41-7.41-3.7,3.7V21.47H32.6l-3.7,3.65,7.41,7.48Z" style="fill:#fff"/><path d="M34.34,42a2.44,2.44,0,0,0-1.75-.72,2.49,2.49,0,0,0-1.75.72l-5.66,5.66-2-2a2.47,2.47,0,0,0-1.75-.72,2.51,2.51,0,0,0-.95.18A2.48,2.48,0,0,0,19,47.41V58.53A2.47,2.47,0,0,0,21.47,61H32.59a2.47,2.47,0,0,0,1.73-4.23l-1.93-1.91,5.66-5.71a2.47,2.47,0,0,0,0-3.49ZM28.88,54.88l3.7,3.65H21.47V47.41l3.7,3.7,7.41-7.41,3.7,3.7Z" style="fill:#fff"/><path d="M58.53,19H47.41a2.47,2.47,0,0,0-1.73,4.23l1.94,1.9L42,30.84a2.47,2.47,0,0,0,0,3.49l3.7,3.7a2.45,2.45,0,0,0,1.75.72A2.49,2.49,0,0,0,49.16,38l5.66-5.66,2,2a2.47,2.47,0,0,0,1.75.72,2.51,2.51,0,0,0,.95-.18A2.47,2.47,0,0,0,61,32.58V21.47A2.47,2.47,0,0,0,58.53,19Zm0,13.59-3.7-3.7L47.42,36.3l-3.7-3.7,7.41-7.48-3.7-3.65H58.54V32.59Z" style="fill:#fff"/><path d="M59.48,45.13a2.49,2.49,0,0,0-2.7.54l-2,2L49.16,42a2.45,2.45,0,0,0-1.75-.72,2.49,2.49,0,0,0-1.75.72L42,45.66a2.47,2.47,0,0,0,0,3.49l5.66,5.71-1.94,1.91A2.47,2.47,0,0,0,47.4,61H58.52A2.47,2.47,0,0,0,61,58.53V47.41A2.44,2.44,0,0,0,59.48,45.13Zm-.95,13.4H47.41l3.7-3.65L43.7,47.41l3.7-3.7,7.41,7.41,3.7-3.7V58.53Z" style="fill:#fff"/></g></g></g></svg>