<svg xmlns="http://www.w3.org/2000/svg" xmlns:xlink="http://www.w3.org/1999/xlink" viewBox="0 0 80 80"><defs><linearGradient id="linear-gradient" x1="41.36" y1="38.44" x2="75.56" y2="58.19" gradientUnits="userSpaceOnUse"><stop offset="0" stop-color="#922519" stop-opacity="0.9"/><stop offset="0.23" stop-color="#9a352a" stop-opacity="0.79"/><stop offset="0.65" stop-color="#a4493f" stop-opacity="0.65"/><stop offset="1" stop-color="#a85047" stop-opacity="0.6"/></linearGradient><linearGradient id="linear-gradient-2" x1="29.42" y1="47.83" x2="46.73" y2="54.13" gradientUnits="userSpaceOnUse"><stop offset="0" stop-color="#922519" stop-opacity="0.9"/><stop offset="1" stop-color="#a85047" stop-opacity="0.6"/></linearGradient></defs><title>Affordable</title><g id="Layer_2" data-name="Layer 2"><g id="Layer_1-2" data-name="Layer 1"><circle cx="40" cy="40" r="40" style="fill:#a85047"/><path d="M33,65.51,46.85,79.38A40,40,0,0,0,77.71,27L65,14.35l-3,4.77-4.5,4.75L50,25.37l-2.87,3,6.56,7.19-.25,9Z" style="fill:url(#linear-gradient)"/><polygon points="36.87 39.55 48.02 50.58 36.87 61.53 30.74 55.13 30.88 54.59 28.1 51.44 36.16 52 36.48 49.13 31.69 43.47 33.6 42.14 35.94 40.39 36.87 39.55" style="fill:url(#linear-gradient-2)"/><g id="price_tag" data-name="price tag"><g id="_1007-price-tag_2x.png" data-name="1007-price-tag@2x.png"><path d="M36.87,39.55l-1.71-.46L34.65,41c-2.2-.22-3.8.75-4.25,2.43s.68,3.15,2.67,4.48c1.41.94,2,1.71,1.74,2.6s-1.31,1.31-2.63,1a7.08,7.08,0,0,1-3-1.73l-1.07,1.7a7.64,7.64,0,0,0,3.15,1.78l-.51,1.91,1.71.46.54-2c2.39.27,4-.88,4.46-2.55s-.29-3.09-2.4-4.54c-1.59-1.14-2.23-1.8-2-2.6s.89-1.23,2.35-.84a6.75,6.75,0,0,1,2.66,1.43l1-1.65a7.31,7.31,0,0,0-2.7-1.42ZM65.14,14.43a.92.92,0,0,0-1.22.44c0,.08-4.15,8.64-10.17,8.64A8.93,8.93,0,0,0,46.66,27l-1.43-1.44a.91.91,0,0,0-.65-.27H35.43a.91.91,0,0,0-.65.27L14.61,45.77a.92.92,0,0,0,0,1.29L32.94,65.39a.92.92,0,0,0,1.29,0L54.39,45.23a.91.91,0,0,0,.27-.65V35.42a.91.91,0,0,0-.27-.65L48,28.36a7.23,7.23,0,0,1,5.76-3c7.17,0,11.64-9.29,11.82-9.69A.91.91,0,0,0,65.14,14.43Zm-21.6,22.8h.14a.92.92,0,0,0,.9-.78,22.85,22.85,0,0,1,.6-2.44,2.76,2.76,0,1,1-1.8-.42,22.14,22.14,0,0,0-.61,2.58A.9.9,0,0,0,43.53,37.24Zm9.3-1.44v8.41L33.59,63.44l-17-17L35.81,27.17h8.41l1.36,1.36A19.27,19.27,0,0,0,44,31.78a3,3,0,0,0-.32,0,4.63,4.63,0,1,0,2.1.53,18.19,18.19,0,0,1,1.15-2.4Z" style="fill:#fff"/></g></g></g></g></svg>