<svg xmlns="http://www.w3.org/2000/svg" xmlns:xlink="http://www.w3.org/1999/xlink" viewBox="0 0 80 80"><defs><linearGradient id="linear-gradient" x1="44.76" y1="44.99" x2="66.06" y2="70.37" gradientUnits="userSpaceOnUse"><stop offset="0" stop-color="#ea2880" stop-opacity="0.5"/><stop offset="0.12" stop-color="#ee407a" stop-opacity="0.5"/><stop offset="0.48" stop-color="#f7806a" stop-opacity="0.5"/><stop offset="0.79" stop-color="#fda860" stop-opacity="0.5"/><stop offset="1" stop-color="#ffb65c" stop-opacity="0.5"/></linearGradient><linearGradient id="linear-gradient-2" x1="19.75" y1="39.27" x2="43.46" y2="67.53" gradientUnits="userSpaceOnUse"><stop offset="0" stop-color="#ea2880" stop-opacity="0.5"/><stop offset="0.11" stop-color="#ef4c77" stop-opacity="0.5"/><stop offset="0.3" stop-color="#f67a6b" stop-opacity="0.5"/><stop offset="0.5" stop-color="#fb9c63" stop-opacity="0.5"/><stop offset="0.72" stop-color="#feb05e" stop-opacity="0.5"/><stop offset="1" stop-color="#ffb65c" stop-opacity="0.5"/></linearGradient></defs><title>Friendly</title><g id="Layer_2" data-name="Layer 2"><g id="Layer_1-2" data-name="Layer 1"><circle cx="40" cy="40" r="40" style="fill:#ffb65c"/><path d="M45.68,79.6A40,40,0,0,0,79.17,48.16L66.78,36.3s-2.6,3.59-3.1,5.57c-1.42,5.63-3.48,14.92-11.06,19.31-12.87,7.45-26.48-.56-26.48-.56Z" style="fill:url(#linear-gradient)"/><polygon points="23.43 36.18 20.99 40.55 17.83 41.55 18.41 48.14 23.83 57.95 31.24 62.89 43.41 64.55 50.26 61.82 23.43 36.18" style="fill:url(#linear-gradient-2)"/><g id="smiley"><path d="M66,36a1,1,0,0,0-1,1,3.4,3.4,0,1,1-6.8,0,1,1,0,1,0-2,0,5.46,5.46,0,0,0,5.44,5.44,1.77,1.77,0,0,0,.41,0,21.61,21.61,0,0,1-43.19,0,5.48,5.48,0,0,0,5-5.41,1,1,0,0,0-2,0A3.4,3.4,0,1,1,15,37a1,1,0,1,0-2,0,5.47,5.47,0,0,0,3.85,5.22,23.64,23.64,0,0,0,47.27-.38,5.36,5.36,0,0,0,3-4.84A1,1,0,0,0,66,36Z" style="fill:#fff"/></g></g></g></svg>