<svg xmlns="http://www.w3.org/2000/svg" viewBox="0 0 48 18.01"><title>MMdermottGlasses</title><g id="Layer_2" data-name="Layer 2"><g id="Layer_1-2" data-name="Layer 1"><g id="glasses"><path d="M46.56,1.51A4.21,4.21,0,0,0,43.35,0H29.73a4.23,4.23,0,0,0-3.21,1.5h-5A4.2,4.2,0,0,0,18.27,0H4.64A4.21,4.21,0,0,0,1.43,1.51c-.8,0-1.43.35-1.43.75v4.5c0,.3.36.55.85.67l.92,6.47A4.24,4.24,0,0,0,6,18H16.9a4.23,4.23,0,0,0,4.22-4.11L21.83,9c0-.83,1-1.5,2.17-1.5s2.17.67,2.17,1.5l.7,4.89A4.24,4.24,0,0,0,31.09,18H42a4.23,4.23,0,0,0,4.22-4.11l.92-6.47c.5-.12.85-.37.85-.67V2.26C48,1.85,47.36,1.54,46.56,1.51ZM18.15,13.56a1.57,1.57,0,0,0,0,.21A1.23,1.23,0,0,1,16.9,15H6a1.23,1.23,0,0,1-1.23-1.23.79.79,0,0,0,0-.21L3.41,4.15A1.23,1.23,0,0,1,4.64,3H18.27a1.23,1.23,0,0,1,1.23,1.14L18.8,9Zm25.08,0a1.57,1.57,0,0,0,0,.21A1.23,1.23,0,0,1,42,15H31.09a1.23,1.23,0,0,1-1.23-1.23.79.79,0,0,0,0-.21L29.19,9,28.5,4.15A1.23,1.23,0,0,1,29.73,3H43.35a1.23,1.23,0,0,1,1.23,1.14Z" style="fill:#fff"/></g></g></g></svg>