<svg xmlns="http://www.w3.org/2000/svg" viewBox="0 0 24 33.6"><title>icon_project</title><g id="Layer_2" data-name="Layer 2"><g id="Layer_1-2" data-name="Layer 1"><g id="code_fork" data-name="code fork"><g id="_369-code-fork2.png" data-name="369-code-fork2.png"><path d="M19.81,0A4.19,4.19,0,0,0,18,8V10.8a4.8,4.8,0,0,1-4.8,4.81H6V8A4.19,4.19,0,1,0,0,4.2,4.17,4.17,0,0,0,2.4,8V25.62a4.2,4.2,0,1,0,3.6,0V19.2h7.2a8.41,8.41,0,0,0,8.4-8.41V8a4.19,4.19,0,0,0-1.79-8ZM4.2,31.2A1.8,1.8,0,1,1,6,29.4,1.8,1.8,0,0,1,4.2,31.2ZM4.2,6A1.8,1.8,0,1,1,6,4.2,1.8,1.8,0,0,1,4.2,6ZM19.81,6a1.8,1.8,0,1,1,1.8-1.8A1.8,1.8,0,0,1,19.81,6Z" style="fill:#fff"/></g></g></g></g></svg>