<svg xmlns="http://www.w3.org/2000/svg" xmlns:xlink="http://www.w3.org/1999/xlink" viewBox="0 0 14 14"><defs><clipPath id="clip-path" transform="translate(0 0)"><rect width="14" height="14" style="fill:none"/></clipPath></defs><title>Artwork 3</title><g id="Layer_2" data-name="Layer 2"><g id="Layer_1-2" data-name="Layer 1"><g id="Artwork_3" data-name="Artwork 3"><g style="clip-path:url(#clip-path)"><g style="clip-path:url(#clip-path)"><path d="M14,5V8.5a2.69,2.69,0,0,0-.06.33c0,.7,0,1.4-.14,2.09a3.38,3.38,0,0,1-1.46,2.29,4.13,4.13,0,0,1-2.32.72,4.44,4.44,0,0,0-.46.06H4.25l-1-.13A3.57,3.57,0,0,1,.19,11.06c-.08-.33-.13-.66-.19-1V3.79c0-.22.1-.45.13-.67a3.68,3.68,0,0,1,3.12-3L4.19,0H9.81l.9.13A3.64,3.64,0,0,1,13.41,2a4.5,4.5,0,0,1,.53,2.22c0,.26,0,.52.06.79M7,12.63v-.07c1.1,0,2.2.05,3.29,0A2.18,2.18,0,0,0,12.37,11a5.57,5.57,0,0,0,.25-1.48c0-1.44,0-2.88,0-4.32a13.86,13.86,0,0,0-.13-1.74,2.16,2.16,0,0,0-.72-1.36,2.92,2.92,0,0,0-2-.68c-2,0-4.09,0-6.14.07A2.25,2.25,0,0,0,1.52,3.26,8.36,8.36,0,0,0,1.32,5c0,1.8.05,3.6.13,5.4a2.21,2.21,0,0,0,1,1.65,3,3,0,0,0,1.82.52c.92,0,1.83,0,2.75,0" transform="translate(0 0)" style="fill:#fff"/><path d="M7,3.4A3.57,3.57,0,0,1,10.6,7.12,3.63,3.63,0,0,1,3.34,7,3.57,3.57,0,0,1,7,3.4M9.22,7A2.25,2.25,0,1,0,4.72,7,2.24,2.24,0,0,0,7,9.27,2.21,2.21,0,0,0,9.22,7" transform="translate(0 0)" style="fill:#fff"/><path d="M10.65,2.42a.83.83,0,0,1,.93.87.93.93,0,0,1-.85.89.86.86,0,0,1-.92-.88.82.82,0,0,1,.84-.88" transform="translate(0 0)" style="fill:#fff"/></g></g></g></g></g></svg>