<svg xmlns="http://www.w3.org/2000/svg" xmlns:xlink="http://www.w3.org/1999/xlink" viewBox="0 0 14 14"><defs><clipPath id="clip-path" transform="translate(0)"><rect width="14" height="14" style="fill:none"/></clipPath></defs><title>LinkedIn logo</title><g id="Layer_2" data-name="Layer 2"><g id="Layer_1-2" data-name="Layer 1"><g id="LinkedIn_logo" data-name="LinkedIn logo"><g style="clip-path:url(#clip-path)"><g style="clip-path:url(#clip-path)"><path d="M3.11,1.56A1.47,1.47,0,0,1,1.56,3.11,1.5,1.5,0,0,1,0,1.63,1.58,1.58,0,0,1,1.56,0,1.51,1.51,0,0,1,3.11,1.56M0,14H3.11V3.89H0ZM10.58,4a3.41,3.41,0,0,0-3,1.56H7.54L7.39,4.28H4.59c0,.86.08,1.87.08,3V14H7.78V8.48a2.4,2.4,0,0,1,.08-.78A1.67,1.67,0,0,1,9.33,6.46c1.09,0,1.56.93,1.56,2.18V14H14V8.24C14,5.37,12.52,4,10.58,4" transform="translate(0)" style="fill:#fff"/></g></g></g></g></g></svg>