<svg xmlns="http://www.w3.org/2000/svg" xmlns:xlink="http://www.w3.org/1999/xlink" viewBox="0 0 80 80"><defs><linearGradient id="linear-gradient" x1="28.03" y1="29.02" x2="67.78" y2="68.78" gradientUnits="userSpaceOnUse"><stop offset="0" stop-color="#362946" stop-opacity="0.4"/><stop offset="0.25" stop-color="#3d2e4e" stop-opacity="0.42"/><stop offset="0.6" stop-color="#4f3c66" stop-opacity="0.49"/><stop offset="1" stop-color="#6b518b" stop-opacity="0.6"/></linearGradient></defs><title>Results</title><g id="Layer_2" data-name="Layer 2"><g id="Layer_1-2" data-name="Layer 1"><circle cx="40" cy="40" r="40" style="fill:#6b518b"/><path d="M31,64,46.47,79.47A40,40,0,0,0,79.16,48.16L61,30l-5.62,2.41L53,30l-4-4H31l7.31,7.28,0,4L31,30l-8,8-4,4L37,58,33.3,59.37Z" style="fill:url(#linear-gradient)"/><g id="code_tree" data-name="code tree"><g id="_367-code-tree.png" data-name="367-code-tree.png"><polygon points="49 30 52.99 34 42.99 44 42.99 26.01 49 26.01 40 16 31 26.01 37.01 26.01 37.01 44 27 34 31.02 30 19 30 19 42 23 38 37.01 52 37.01 58 31 58 31 63.99 49 63.99 49 58 42.99 58 42.99 52 57 38 61 42 61 30 49 30" style="fill:#fff"/></g></g></g></g></svg>