<svg xmlns="http://www.w3.org/2000/svg" xmlns:xlink="http://www.w3.org/1999/xlink" viewBox="0 0 80 80"><defs><linearGradient id="linear-gradient" x1="27.79" y1="27.51" x2="68.34" y2="68.06" gradientUnits="userSpaceOnUse"><stop offset="0" stop-color="#3b0a20" stop-opacity="0.3"/><stop offset="0.36" stop-color="#6d1f42" stop-opacity="0.43"/><stop offset="0.78" stop-color="#9e3464" stop-opacity="0.55"/><stop offset="1" stop-color="#b13c71" stop-opacity="0.6"/></linearGradient></defs><title>PM</title><g id="Layer_2" data-name="Layer 2"><g id="Layer_1-2" data-name="Layer 1"><circle cx="40" cy="40" r="40" style="fill:#b13c71"/><path d="M80,40c0-.61,0-.62,0-1.22L60.22,19.57,45.84,33.93,33,23.43,20,35.25l11.6,11.43-.17,5.8-9.63-9.15-2.2,17L40,80A40.29,40.29,0,0,0,80,40Z" style="fill:url(#linear-gradient)"/><g id="Chart"><g id="Shape_350" data-name="Shape 350"><path d="M58.67,35.25a2.26,2.26,0,0,0-2.32,2.18V58.81a2.33,2.33,0,0,0,4.65,0V37.43A2.26,2.26,0,0,0,58.67,35.25Z" style="fill:#fff"/></g><g id="Shape_348" data-name="Shape 348"><path d="M45.84,43.44a2.27,2.27,0,0,0-2.33,2.21V58.78a2.33,2.33,0,0,0,4.65,0V45.65A2.27,2.27,0,0,0,45.84,43.44Z" style="fill:#fff"/></g><g id="Shape_346" data-name="Shape 346"><path d="M33,32.88a2.28,2.28,0,0,0-2.33,2.22V58.77a2.33,2.33,0,0,0,4.66,0V35.1A2.28,2.28,0,0,0,33,32.88Z" style="fill:#fff"/></g><g id="Shape_344" data-name="Shape 344"><path d="M21.34,43.42A2.27,2.27,0,0,0,19,45.64V58.78a2.33,2.33,0,0,0,4.65,0V45.64A2.28,2.28,0,0,0,21.34,43.42Z" style="fill:#fff"/></g><g id="Shape_343_copy" data-name="Shape 343 copy"><path d="M60.95,21.16a2.17,2.17,0,0,0-.73-1.59A2.28,2.28,0,0,0,58.54,19l-4.48.37a2.15,2.15,0,0,0-.56,4.19l-7.16,7.72-11-10.57a2.26,2.26,0,0,0-3.05-.05L19.72,31.91A2.15,2.15,0,0,0,19.58,35a2.26,2.26,0,0,0,3.14.14l11-9.85L44.88,36a2.24,2.24,0,0,0,1.55.62h.06a2.22,2.22,0,0,0,1.58-.71l8.71-9.38a2.21,2.21,0,0,0,2,1.25h0a2.2,2.2,0,0,0,2.2-2.2Z" style="fill:#fff"/></g></g></g></g></svg>