<svg xmlns="http://www.w3.org/2000/svg" xmlns:xlink="http://www.w3.org/1999/xlink" viewBox="0 0 16 13"><defs><clipPath id="clip-path" transform="translate(0 0)"><rect width="16" height="13" style="fill:none"/></clipPath></defs><title>Twitter logo</title><g id="Layer_2" data-name="Layer 2"><g id="Layer_1-2" data-name="Layer 1"><g id="Twitter_logo" data-name="Twitter logo"><g style="clip-path:url(#clip-path)"><g style="clip-path:url(#clip-path)"><path d="M14.36,3.24c0,.14,0,.28,0,.42A9.28,9.28,0,0,1,5,13a9.29,9.29,0,0,1-5-1.48,6.57,6.57,0,0,0,.78,0,6.59,6.59,0,0,0,4.08-1.4A3.29,3.29,0,0,1,1.79,7.89a3.36,3.36,0,0,0,.62.06,3.29,3.29,0,0,0,.86-.11A3.29,3.29,0,0,1,.64,4.61v0A3.29,3.29,0,0,0,2.13,5,3.29,3.29,0,0,1,1.11.6,9.32,9.32,0,0,0,7.88,4a3.28,3.28,0,0,1,5.59-3,6.59,6.59,0,0,0,2.08-.8,3.29,3.29,0,0,1-1.44,1.82A6.58,6.58,0,0,0,16,1.54a6.62,6.62,0,0,1-1.64,1.7" transform="translate(0 0)" style="fill:#fff"/></g></g></g></g></g></svg>