<svg xmlns="http://www.w3.org/2000/svg" xmlns:xlink="http://www.w3.org/1999/xlink" viewBox="0 0 80 80"><defs><linearGradient id="linear-gradient" x1="36.49" y1="24.61" x2="64.01" y2="72.28" gradientUnits="userSpaceOnUse"><stop offset="0.09" stop-color="#154040" stop-opacity="0.6"/><stop offset="1" stop-color="#3c8d8d" stop-opacity="0.3"/></linearGradient></defs><title>WebDesignDev</title><g id="Layer_2" data-name="Layer 2"><g id="Layer_1-2" data-name="Layer 1"><circle cx="40" cy="40" r="40" style="fill:#3c8d8d"/><path d="M65.41,38.2,53.93,30.72,45.61,22,40.44,40,30.19,28.24,20.7,40l5.54,12.87L51.65,78.28A40.61,40.61,0,0,0,78.41,51.2Z" style="opacity:0.44;fill:url(#linear-gradient)"/><g id="Code_Markup" data-name="Code Markup"><path d="M20.27,39.71l9.49-9.49a1.59,1.59,0,0,0,0-2.26l-1.28-1.28a1.62,1.62,0,0,0-2.25,0L14.34,38.58a1.58,1.58,0,0,0,0,2.25L26.24,52.72a1.55,1.55,0,0,0,1.13.48,1.53,1.53,0,0,0,1.12-.48l1.28-1.28a1.58,1.58,0,0,0,0-2.25Z" style="fill:#fff"/><path d="M46,21.93l-1.56-.43a1.59,1.59,0,0,0-2,1.08l-9.52,33a1.56,1.56,0,0,0,.14,1.2,1.59,1.59,0,0,0,1,.76l1.56.43A1.49,1.49,0,0,0,36,58a1.59,1.59,0,0,0,1.5-1.14l9.52-32.94a1.56,1.56,0,0,0-.14-1.2A1.53,1.53,0,0,0,46,21.93ZM36,57.22Z" style="fill:#fff"/><path d="M65.66,38.59,53.76,26.7a1.62,1.62,0,0,0-2.25,0L50.24,28a1.58,1.58,0,0,0-.47,1.13,1.62,1.62,0,0,0,.47,1.13l9.49,9.49-9.49,9.49a1.58,1.58,0,0,0,0,2.25l1.28,1.26a1.57,1.57,0,0,0,1.13.48,1.53,1.53,0,0,0,1.12-.48L65.66,40.83A1.56,1.56,0,0,0,65.66,38.59Z" style="fill:#fff"/></g></g></g></svg>